# xmcd
#
# Track frame offsets: 
#        150
#        14475
#        28425
#        54150
#        81450
#        98475
#        114600
#        138900
#        157125
#
# Disc length: 2303 seconds
#
# Revision: 1
# Processed by: cddbd v1.5.1PL0 Copyright (c) Steve Scherf et al.
# Submitted via: ExactAudioCopy v0.95a5
#
DISCID=7408fd09
DTITLE=Ike Quebec - Bossa Nova Soul Samba
DYEAR=1962
DGENRE=Latin
TTITLE0=Loie
TTITLE1=Lloro Tu Despedida
TTITLE2=Goin' Home
TTITLE3=Me'n You
TTITLE4=Liebestraum
TTITLE5=Shu Shu
TTITLE6=Blue Samba
TTITLE7=Favela
TTITLE8=Linda Flor
EXTD=YEAR: 1962
EXTT0=
EXTT1=
EXTT2=
EXTT3=
EXTT4=
EXTT5=
EXTT6=
EXTT7=
EXTT8=
PLAYORDER=
